<svg xmlns="http://www.w3.org/2000/svg" viewBox="0 0 150 150"><defs><style>.a{fill:#5f2788;}.b{fill:none;}.c{fill:#fff;}</style></defs><title>agent</title><circle class="a" cx="75" cy="75" r="75"/><path class="b" d="M63.9,75a14.94,14.94,0,1,0-15-14.78A14.88,14.88,0,0,0,63.9,75Z"/><path class="c" d="M100.47,81a3.68,3.68,0,0,0-2.12,4c.12,3.26,0,3.32,2.93,4.47,8,3.13,12.07,9.11,12.86,17.53a5.59,5.59,0,0,0,.34,1.8c1,2.21,3.4,2.07,5.43-.68l0,0L120,108v-1.81a2.18,2.18,0,0,1-.19-.52.13.13,0,0,0,0-.06c-1.3-9.43-6.14-16.34-14.71-20.71,1.14-1.28,2.26-2.41,3.24-3.67a16.9,16.9,0,0,0,1-18.42c-3.39-5.72-10.42-9.17-16.61-8.16-1.37.22-2.5.73-2.73,2.32a2.48,2.48,0,0,0,1.56,2.87,7.63,7.63,0,0,0,2.75.18,11.31,11.31,0,0,1,10.84,6.79A11,11,0,0,1,100.47,81Z"/><path class="c" d="M30.05,108.5c.48.38.62.58.81.64,1.05.33,2.3,1.11,3.11.79a3.67,3.67,0,0,0,1.75-2.69,30.21,30.21,0,0,1,6-15.95C52.47,77,75.4,77.08,86,91.48a29.08,29.08,0,0,1,5.78,15.64c.13,2,1.34,3.3,2.87,3.23,1.69-.07,2.83-1.55,2.64-3.61C96,93.26,89.43,83.5,77.07,77.77c-.49-.22-1-.46-1.5-.72,12.22-9.69,10-24.37,2.59-31.65a20.8,20.8,0,0,0-28.51-.21c-7.07,6.57-10.49,21.74,2.42,31.86-12.3,5.13-19.47,14.32-21.91,27.38v-.07a1.82,1.82,0,0,1-.15.54v3.56l0,.06ZM48.88,60.17A14.93,14.93,0,1,1,63.9,75,14.94,14.94,0,0,1,48.88,60.17Z"/></svg>